<svg width="113" height="117" viewBox="0 0 113 117" fill="none" xmlns="http://www.w3.org/2000/svg">
<path d="M21.3334 52.512C21.3334 2.71735 94.6667 2.71771 94.6667 52.512C94.6667 75.8824 74.7222 94.3281 64.2527 102.401C62.4319 103.805 61.5214 104.507 60.0216 104.91C58.9091 105.21 57.093 105.21 55.9805 104.91C54.4807 104.507 53.5702 103.805 51.7493 102.401C41.2793 94.3283 21.3334 75.8825 21.3334 52.512Z" fill="#F03E3E"/>
<circle cx="58" cy="114" r="3" fill="#F03E3E"/>
<path d="M42 56.5V41H51.5013V51.7551H73.7949V72H64.3466L64.336 66.4274L64.3201 60.8495L57.9134 60.8337L51.5013 60.8231L51.4907 66.3957L51.4748 71.9736L46.74 71.9895L42 72V56.5Z" fill="white"/>
<path d="M64.2565 45.7692V41H73.7949V41.3414C73.7949 42.3983 73.5002 43.7098 73.0018 44.8479C71.78 47.6607 69.3525 49.6713 66.3892 50.3163C65.9015 50.4247 64.9049 50.5385 64.4601 50.5385H64.2565V45.7692Z" fill="#333333"/>
</svg>
